<?xml version="1.0" standalone="no"?><!DOCTYPE svg PUBLIC "-//W3C//DTD SVG 1.1//EN" "http://www.w3.org/Graphics/SVG/1.1/DTD/svg11.dtd"><svg t="1639296447523" class="icon" viewBox="0 0 1024 1024" version="1.1" xmlns="http://www.w3.org/2000/svg" p-id="1510" xmlns:xlink="http://www.w3.org/1999/xlink" width="200" height="200"><defs><style type="text/css"></style></defs><path d="M512 122C296.96 122 122 296.96 122 512s174.96 390 390 390 390-174.96 390-390S727.04 122 512 122z m0 720C330.05 842 182 693.95 182 512S330.05 182 512 182s330 148.05 330 330-148.05 330-330 330z" p-id="1511" fill="#ffffff"></path><path d="M469.64 336.65a30 30 0 0 0-47.64 24.27v318.54a30 30 0 0 0 47.64 24.24l219-159.27a30 30 0 0 0 0-48.54l-219-159.24z" p-id="1512" fill="#ffffff"></path></svg>