<?xml version="1.0" standalone="no"?><!DOCTYPE svg PUBLIC "-//W3C//DTD SVG 1.1//EN" "http://www.w3.org/Graphics/SVG/1.1/DTD/svg11.dtd"><svg t="1639296560669" class="icon" viewBox="0 0 1024 1024" version="1.1" xmlns="http://www.w3.org/2000/svg" p-id="1378" xmlns:xlink="http://www.w3.org/1999/xlink" width="200" height="200"><defs><style type="text/css"></style></defs><path d="M512.15021186 116.49221067A395.50202279 395.50202279 0 1 0 907.5077816 511.99423347 395.93383621 395.93383621 0 0 0 512.15021186 116.49221067z m0 733.2267441a337.86917436 337.86917436 0 1 1 337.72549378-337.72472131A338.15730798 338.15730798 0 0 1 512.15021186 849.71818229z" fill="#ffffff" p-id="1379"></path><path d="M433.62653726 338.08838075a28.81642422 28.81642422 0 0 0-28.81642422 28.81642422v290.03363225a28.81642422 28.81642422 0 0 0 57.63207596-1e-8V366.90557743a28.81642422 28.81642422 0 0 0-28.81565173-28.8164242z m158.48878824 0a28.81642422 28.81642422 0 0 0-28.81642422 28.81642422v290.03363225a28.81642422 28.81642422 0 1 0 57.63207595-1e-8V366.90557743a28.81642422 28.81642422 0 0 0-28.81565173-28.8164242z" fill="#ffffff" p-id="1380"></path></svg>